<?xml version="1.0" standalone="no"?>
<!DOCTYPE svg PUBLIC "-//W3C//DTD SVG 20010904//EN"
 "http://www.w3.org/TR/2001/REC-SVG-20010904/DTD/svg10.dtd">
<svg version="1.0" xmlns="http://www.w3.org/2000/svg"
 width="512.000000pt" height="512.000000pt" viewBox="0 0 512.000000 512.000000"
 preserveAspectRatio="xMidYMid meet">
<metadata>
Created by potrace 1.14, written by Peter Selinger 2001-2017
</metadata>
<g transform="translate(0.000000,512.000000) scale(0.100000,-0.100000)"
fill="#000000" stroke="none">
<path d="M2347 5109 c-315 -26 -619 -110 -912 -254 -727 -356 -1243 -1036
-1390 -1832 -131 -706 42 -1432 478 -2012 93 -123 305 -341 426 -439 945 -760
2277 -760 3222 0 121 98 333 316 426 439 760 1011 680 2410 -190 3315 -143
149 -267 253 -437 366 -143 95 -380 217 -520 267 -364 130 -734 181 -1103 150z
m503 -1004 c737 -142 1270 -788 1270 -1540 0 -746 -514 -1376 -1254 -1537 -86
-19 -132 -22 -311 -22 -180 0 -225 3 -312 22 -623 136 -1092 607 -1223 1229
-30 141 -37 366 -16 513 27 196 71 332 168 521 86 169 235 360 290 374 55 14
117 -46 104 -100 -3 -13 -31 -52 -62 -87 -155 -177 -263 -396 -316 -641 -31
-146 -31 -400 0 -544 103 -478 416 -852 860 -1027 278 -110 606 -125 897 -41
455 132 818 495 950 950 85 295 69 622 -44 906 -176 437 -566 762 -1020 849
-53 10 -116 20 -141 22 l-45 3 -3 -265 c-2 -252 -3 -265 -23 -286 -28 -30 -63
-37 -98 -20 -50 26 -52 45 -49 385 l3 313 30 25 c29 25 31 26 145 20 63 -3
153 -13 200 -22z m-555 -1078 c215 -139 410 -266 435 -282 29 -20 54 -49 73
-85 26 -49 28 -62 25 -126 -10 -156 -125 -255 -280 -241 -103 9 -128 31 -253
222 -299 456 -455 704 -455 721 0 26 19 44 45 44 11 0 196 -114 410 -253z"/>
</g>
</svg>
